<?xml version="1.0" encoding="UTF-8" standalone="no"?>
<!-- Generator: Adobe Illustrator 16.0.0, SVG Export Plug-In . SVG Version: 6.00 Build 0)  -->

<svg
   xmlns:dc="http://purl.org/dc/elements/1.1/"
   xmlns:cc="http://creativecommons.org/ns#"
   xmlns:rdf="http://www.w3.org/1999/02/22-rdf-syntax-ns#"
   xmlns:svg="http://www.w3.org/2000/svg"
   xmlns="http://www.w3.org/2000/svg"
   xmlns:sodipodi="http://sodipodi.sourceforge.net/DTD/sodipodi-0.dtd"
   xmlns:inkscape="http://www.inkscape.org/namespaces/inkscape"
   version="1.1"
   id="Capa_1"
   x="0px"
   y="0px"
   width="449.956px"
   height="449.956px"
   viewBox="0 0 449.956 449.956"
   style="enable-background:new 0 0 449.956 449.956;"
   xml:space="preserve"
   sodipodi:docname="twitter finished.svg"
   inkscape:version="0.92.4 (5da689c313, 2019-01-14)"><metadata
   id="metadata41"><rdf:RDF><cc:Work
       rdf:about=""><dc:format>image/svg+xml</dc:format><dc:type
         rdf:resource="http://purl.org/dc/dcmitype/StillImage" /><dc:title></dc:title></cc:Work></rdf:RDF></metadata><defs
   id="defs39" /><sodipodi:namedview
   pagecolor="#ffffff"
   bordercolor="#666666"
   borderopacity="1"
   objecttolerance="10"
   gridtolerance="10"
   guidetolerance="10"
   inkscape:pageopacity="0"
   inkscape:pageshadow="2"
   inkscape:window-width="2400"
   inkscape:window-height="1271"
   id="namedview37"
   showgrid="false"
   inkscape:snap-object-midpoints="true"
   inkscape:snap-page="true"
   inkscape:zoom="0.52449574"
   inkscape:cx="224.978"
   inkscape:cy="224.978"
   inkscape:window-x="-9"
   inkscape:window-y="-9"
   inkscape:window-maximized="1"
   inkscape:current-layer="g4" />
<g
   id="g4"
   transform="translate(16.206545,2.8593888)">
	<path
   id="path2"
   d="m 354.04232,131.31792 c -11.28586,4.85428 -22.57426,7.88581 -33.85502,9.10354 12.7414,-7.64484 21.35975,-18.44489 25.84998,-32.39951 -11.65498,6.91546 -24.09098,11.6467 -37.31691,14.19625 -11.65052,-12.37733 -25.96728,-18.56855 -42.95981,-18.56855 -16.25874,0 -30.12156,5.73283 -41.59357,17.20102 -11.46566,11.46755 -17.19911,25.33038 -17.19911,41.59039 0,4.36782 0.48453,8.85934 1.45614,13.47008 -24.02787,-1.21325 -46.56772,-7.25019 -67.62334,-18.1108 -21.05434,-10.86189 -38.92288,-25.33293 -53.605574,-43.41313 -5.339456,9.09907 -8.010154,18.99063 -8.010154,29.66889 0,10.07197 2.365939,19.41715 7.101002,28.03295 4.731877,8.61455 11.104157,15.59122 19.113666,20.93131 -9.466943,-0.36468 -18.325012,-2.85303 -26.575514,-7.46441 v 0.72807 c 0,14.19883 4.459641,26.66478 13.377653,37.40746 8.919281,10.74139 20.175181,17.50257 33.765121,20.29503 -5.09718,1.33311 -10.25558,2.00062 -15.47262,2.00062 -3.39813,0 -7.09971,-0.30283 -11.103524,-0.90531 3.761534,11.76847 10.678914,21.4426 20.749614,29.03069 10.0726,7.58427 21.47959,11.4937 34.22161,11.74235 -21.35655,16.74327 -45.68663,25.11489 -72.990216,25.11489 -5.218959,0 -9.950189,-0.23781 -14.198172,-0.72616 27.304223,17.59374 57.398358,26.3906 90.284298,26.3906 20.87203,0 40.47022,-3.30311 58.78822,-9.91831 18.32693,-6.61072 33.97935,-15.47135 46.96491,-26.57678 12.98174,-11.10289 24.17897,-23.87487 33.58216,-38.31468 9.40382,-14.44107 16.40918,-29.51713 21.02437,-45.23138 4.60946,-15.71747 6.91612,-31.45914 6.91612,-47.23716 0,-3.39813 -0.0613,-5.94512 -0.18297,-7.64482 11.53131,-8.36909 21.36037,-18.50353 29.49164,-30.39314 z m 79.70713,88.82401 A 223.14147,223.14147 0 0 1 210.60796,443.2834 223.14147,223.14147 0 0 1 -12.533508,220.14193 223.14147,223.14147 0 0 1 210.60796,-2.9995332 223.14147,223.14147 0 0 1 433.74945,220.14193 Z"
   inkscape:connector-curvature="0"
   style="stroke-width:0.63754708" />
</g>
<g
   id="g6">
</g>
<g
   id="g8">
</g>
<g
   id="g10">
</g>
<g
   id="g12">
</g>
<g
   id="g14">
</g>
<g
   id="g16">
</g>
<g
   id="g18">
</g>
<g
   id="g20">
</g>
<g
   id="g22">
</g>
<g
   id="g24">
</g>
<g
   id="g26">
</g>
<g
   id="g28">
</g>
<g
   id="g30">
</g>
<g
   id="g32">
</g>
<g
   id="g34">
</g>
</svg>